<?xml version="1.0" encoding="UTF-8" standalone="no"?>
<!DOCTYPE svg PUBLIC "-//W3C//DTD SVG 1.1//EN" "http://www.w3.org/Graphics/SVG/1.1/DTD/svg11.dtd">
<svg width="100%" height="100%" viewBox="0 0 512 512" version="1.1" >
    <g transform="matrix(-6.12323e-17,-1,-1,6.12323e-17,511.985,511.77)">
        <path d="M503.236,165.915L482.159,144.838C475.512,138.191 464.683,138.191 458.027,144.838L433.878,120.706C437.104,117.489 438.887,113.205 438.887,108.648C438.887,104.083 437.112,99.79 433.886,96.565L393.762,56.44C345.924,8.594 263.398,4.097 213.564,46.601L213.555,46.601C208.631,50.808 203.989,55.382 199.748,60.212C194.833,65.801 194.082,73.601 197.811,80.086C201.591,86.648 208.802,89.908 216.243,88.466L218.624,87.98C239.923,83.705 262.374,86.734 281.83,96.445C287.377,99.218 299.929,109.655 310.57,119.118L7.646,415.216C2.79,419.986 0,426.608 0,433.4L0,436.387C0,468.464 26.095,494.559 58.163,494.559L69.632,494.559C76.493,494.559 83.157,491.734 87.91,486.802L390.135,173.492L409.762,193.11C406.536,196.327 404.753,200.611 404.753,205.168C404.753,209.733 406.528,214.026 409.753,217.251L430.83,238.32C436.667,244.157 444.33,247.075 451.993,247.075C459.664,247.075 467.319,244.157 473.156,238.32L503.236,208.24C514.901,196.575 514.901,177.58 503.236,165.915Z" style="fill-rule:nonzero;"/>
    </g>
</svg>
