<svg xmlns="http://www.w3.org/2000/svg" viewBox="0 0 1366 506">
    <defs>
        <style>.cls-1{ fill:#604320; }</style>
    </defs>
    <g id="Layer_5" data-name="Layer 5">
        <path class="cls-1" d="M176,301.8q0-19.74-8.66-30.52t-26-10.79q-21,0-33.26,14t-12.3,37v82.93q0,8.81-6.23,12.9a25.31,25.31,0,0,1-28.1-.3q-6.37-4.4-6.37-13.21v-154q0-8.51,6.07-12.61a23.4,23.4,0,0,1,13.37-4.1,22.79,22.79,0,0,1,12.9,4c3.95,2.64,5.93,6.58,5.93,11.85v8.81a36,36,0,0,1,8-10.79,53.41,53.41,0,0,1,12-8.5A66.49,66.49,0,0,1,127.8,223a61.14,61.14,0,0,1,15-2q73.8,0,73.81,79.88v93.86q0,8.21-6.23,12.45a25.3,25.3,0,0,1-28.1,0Q175.95,403,176,394.75Z" />
        <path class="cls-1" d="M341.18,414.19a93,93,0,0,1-37.66-7.44,90.15,90.15,0,0,1-29.47-20.51,92.16,92.16,0,0,1-19.28-30.67,110.09,110.09,0,0,1,0-76.4,93.64,93.64,0,0,1,19.28-31,89,89,0,0,1,29.47-20.65,98.65,98.65,0,0,1,75.17,0,88.75,88.75,0,0,1,29.62,20.65,93.83,93.83,0,0,1,19.29,31,110.24,110.24,0,0,1,0,76.4,92.35,92.35,0,0,1-19.29,30.67,89.84,89.84,0,0,1-29.62,20.51A93.27,93.27,0,0,1,341.18,414.19Zm0-38.88a47.13,47.13,0,0,0,21.11-4.71A53.41,53.41,0,0,0,378.85,358a56.86,56.86,0,0,0,10.78-18.38,65.1,65.1,0,0,0,3.8-22.33,66.36,66.36,0,0,0-3.8-22.47,58.08,58.08,0,0,0-10.78-18.68,52.26,52.26,0,0,0-16.56-12.76,49.66,49.66,0,0,0-42.22,0,52.11,52.11,0,0,0-16.55,12.76,57.74,57.74,0,0,0-10.79,18.68,66.35,66.35,0,0,0-3.79,22.47,65.09,65.09,0,0,0,3.79,22.33A56.52,56.52,0,0,0,303.52,358a53.25,53.25,0,0,0,16.55,12.6A47.13,47.13,0,0,0,341.18,375.31Z" />
        <path class="cls-1" d="M551.67,414.19A93,93,0,0,1,514,406.75a90.11,90.11,0,0,1-29.46-20.51,92,92,0,0,1-19.29-30.67,110.09,110.09,0,0,1,0-76.4,93.5,93.5,0,0,1,19.29-31A89,89,0,0,1,514,227.54a98.68,98.68,0,0,1,75.18,0,88.71,88.71,0,0,1,29.61,20.65,93.83,93.83,0,0,1,19.29,31,110.24,110.24,0,0,1,0,76.4,92.35,92.35,0,0,1-19.29,30.67,89.8,89.8,0,0,1-29.61,20.51A93.36,93.36,0,0,1,551.67,414.19Zm0-38.88a47.17,47.17,0,0,0,21.12-4.71A53.48,53.48,0,0,0,589.34,358a56.68,56.68,0,0,0,10.78-18.38,65.1,65.1,0,0,0,3.8-22.33,66.36,66.36,0,0,0-3.8-22.47,57.9,57.9,0,0,0-10.78-18.68,52.33,52.33,0,0,0-16.55-12.76,49.68,49.68,0,0,0-42.23,0A52.33,52.33,0,0,0,514,276.14a57.72,57.72,0,0,0-10.78,18.68,66.11,66.11,0,0,0-3.8,22.47,64.86,64.86,0,0,0,3.8,22.33A56.5,56.5,0,0,0,514,358a53.48,53.48,0,0,0,16.55,12.6A47.16,47.16,0,0,0,551.67,375.31Z" />
        <path class="cls-1" d="M717.52,332.18v62.87q0,8.2-6.23,12.3a26.07,26.07,0,0,1-28.1,0q-6.37-4.1-6.37-12.3V183q0-8.21,6.37-12.15a27,27,0,0,1,28.1,0q6.23,3.95,6.23,12.15V283.88l71.38-56.49q6.68-5.47,14-5.47a21.05,21.05,0,0,1,15.19,6.22,19.6,19.6,0,0,1,6.38,14.43q0,8.82-8.81,16.4l-65.31,50.12,78.06,67.74a19.85,19.85,0,0,1,5.17,7.14,19.31,19.31,0,0,1,1.52,7.13,16.28,16.28,0,0,1-2,7.9,23.83,23.83,0,0,1-5,6.38,24.17,24.17,0,0,1-7.14,4.4,21.32,21.32,0,0,1-8.05,1.68,17,17,0,0,1-12.45-5.17Z" />
        <path class="cls-1" d="M1064.08,240.45a11.84,11.84,0,0,1,6.38-10.94,28.25,28.25,0,0,1,14.28-3.64,27.66,27.66,0,0,1,14,3.64,11.84,11.84,0,0,1,6.38,10.94v154.6q0,8.2-6.38,12.3a25.27,25.27,0,0,1-14,4.11,25.79,25.79,0,0,1-14.28-4.11q-6.37-4.1-6.38-12.3Z" />
        <path class="cls-1" d="M1199.55,397.48,1130.3,251.69a18.86,18.86,0,0,1-2.13-8.51,16.16,16.16,0,0,1,7.44-14,27.49,27.49,0,0,1,16-5.17,21.71,21.71,0,0,1,10.33,2.59,16.18,16.18,0,0,1,7.29,8.35L1219,349.49l38.88-115.73a13.8,13.8,0,0,1,6.53-8.35,21.44,21.44,0,0,1,10.48-2.58,27.48,27.48,0,0,1,8.51,1.37,24.89,24.89,0,0,1,7.59,3.94,22.41,22.41,0,0,1,5.47,6.08,15.23,15.23,0,0,1,2.12,8.05,20.26,20.26,0,0,1-1.52,7.29L1233,420.87q-7.59,20.06-20.65,28.86T1181,458.54a95.24,95.24,0,0,1-14.73-1.22,123.43,123.43,0,0,1-15.94-3.65c-4.67-1.21-8-3.54-10.18-7a21,21,0,0,1-3.19-11.24,23,23,0,0,1,4.86-14.28q4.86-6.37,13.67-6.37a27.61,27.61,0,0,1,6.68.91q10.93,3.33,17.31,3.34,7,0,10.79-3.34t6.22-10.33Z" />
        <path class="cls-1" d="M1109,187.9a23.16,23.16,0,0,1-7.29,17.16,23.9,23.9,0,0,1-17.32,7.14,24.4,24.4,0,0,1-17.46-7.14,22.9,22.9,0,0,1-7.44-17.16,23.4,23.4,0,0,1,7.44-17.32,24.17,24.17,0,0,1,17.46-7.28A24.88,24.88,0,0,1,1109,187.9Z" />
        <path class="cls-1" d="M1016.85,171.19a26.94,26.94,0,0,0-28.09,0q-6.39,4-6.38,12.15v58.32A46.14,46.14,0,0,0,961.57,226a77.87,77.87,0,0,0-28.4-5,85.09,85.09,0,0,0-34,6.68A77.12,77.12,0,0,0,872.27,247a90.13,90.13,0,0,0-17.77,30.37q-6.37,17.77-6.38,39.94t6.38,39.95a88.46,88.46,0,0,0,17.77,30.22,77.85,77.85,0,0,0,26.88,19.13,84.92,84.92,0,0,0,34,6.69,72.7,72.7,0,0,0,30.22-6.23q13.83-6.23,20.81-17.77v9.42q0,6.38,5.92,9.57a26.87,26.87,0,0,0,12.91,3.19,27.75,27.75,0,0,0,13.82-3.5,11.3,11.3,0,0,0,6.23-10.48V183.34Q1023.08,175.15,1016.85,171.19Zm-48.38,166c-1.11,10.44-4.2,22.42-12.78,32.3a31,31,0,0,1-19.24,10.72c-2.77.41-4.39,1.22-4.15,4.33a3.24,3.24,0,0,1-1.62,3.33c-2.38,1.3-5.14-.06-5-2.84.21-3.59-1.2-4.75-4.63-5.3C911,378.09,904,371.62,897.84,364c-11.26-14-12.28-30.14-9.53-47,.48-2.92,2.77-4.55,5.05-6.1,8.91-6.09,19-8.51,29.51-9.47,12.8-1.18,25.37-.33,37.58,4.17a10,10,0,0,1,6.75,7.62C969,320.4,969.27,327.64,968.47,337.15Zm.38-47.24c-.73,9.27-.77,9.42-9.74,7.08a143.5,143.5,0,0,0-26.06-4c-6.69-.48-13.15,1-19.58,2.53a151.48,151.48,0,0,0-27,9.5c-2.79,1.23-3.54.65-4.13-2.38a48.34,48.34,0,0,1,.48-20.7c2-8.36,7.63-13.35,15.18-16.66a37.2,37.2,0,0,1,17.19-2.9c3.36.17,4.65-1.29,4.07-4.22a2.79,2.79,0,0,0-2.24-2.49,2.65,2.65,0,0,1-2.35-2.35c-.26-1.81-1-3.8.52-5.27,1.83-1.72,4.26-1.54,6.48-1a6.71,6.71,0,0,1,5,7c-.47,8.08,1.05,9.21,9.17,6.88a37.45,37.45,0,0,1,12.55-1.51c8.53.48,19.74,9.77,20.1,19.9C968.6,283.13,969.41,286.89,968.85,289.91Z" />
    </g>
</svg>