<?xml version="1.0" encoding="UTF-8" standalone="no"?>
<!DOCTYPE svg PUBLIC "-//W3C//DTD SVG 1.1//EN" "http://www.w3.org/Graphics/SVG/1.1/DTD/svg11.dtd">
<svg viewBox="0 0 275 246" version="1.1" xmlns="http://www.w3.org/2000/svg">
    <g transform="matrix(1,0,0,1,0,-6.78)">
        <g id="Layer_4_copy">
            <path d="M178.63,177.91C177.43,178.137 176.22,178.427 175,178.78C135,190.78 145,240.9 179.51,248.34C115.74,262.56 28.75,233.52 0,196.78C64,202.78 39,60.78 121,37.78C151.32,29.28 177.83,36.06 198.48,57.05C216,70.84 190,111.8 175,129.78C224.9,95.64 231,32.78 235,6.78C249,18.78 242,39.78 253,47.78C245,49.78 235,58.78 222,86.78C292,100.78 274.46,185.94 222,228.78C219.264,231.007 216.392,233.061 213.4,234.93C230.31,203.09 207.9,172.3 178.63,177.91Z" style="fill:white;fill-rule:nonzero;"/>
        </g>
    </g>
    <g id="Layer_6">
        <g transform="matrix(1,0,0,1,0,-6.78)">
            <path d="M63.85,126.71L76.74,126.86L76.74,130.66L74.35,130.76L74,161.34L67.34,161.5L54.38,138.34L54.49,158.34L59.89,158.45L59.89,162.82L45.8,162.82L45.8,157.67L48.97,157.72L48.5,131.41L45.69,131.31L45.64,127.25L54.22,127.25L68.52,151.53L68.63,130.84L64,131L63.85,126.74M60.73,123.74L60.85,126.89L61,131.15L61.08,133.26L56.71,125.83L55.84,124.35L42.5,124.35L42.5,127.35L42.55,131.4L42.55,134.26L45.37,134.36L45.73,154.73L42.59,154.73L42.59,165.96L62.68,165.96L62.68,159.81L64.71,163L65.59,164.58L67.4,164.58L74.06,164.42L76.95,164.35L76.95,161.46L77.29,133.72L79.71,133.61L79.71,123.9L76.71,123.9L63.81,123.75L60.66,123.75L60.73,123.74ZM61.58,134L64.07,133.94L65.51,133.94L65.51,140.65L61.58,134ZM57.47,155.35L57.47,149.93L60.54,155.41L60,155.41L57.52,155.36L57.47,155.35Z" style="fill:white;fill-rule:nonzero;"/>
        </g>
        <g transform="matrix(1,0,0,1,0,-6.78)">
            <path d="M88.81,140C90.187,140.002 91.549,140.288 92.81,140.84C94.197,141.437 95.451,142.304 96.5,143.39C97.556,144.457 98.404,145.712 99,147.09C99.606,148.483 99.899,149.992 99.86,151.51C99.84,153.079 99.56,154.633 99.03,156.11C98.546,157.488 97.803,158.761 96.84,159.86C94.853,162.119 92.008,163.447 89,163.52L88.37,163.52C87.06,163.526 85.758,163.327 84.51,162.93C83.149,162.518 81.884,161.838 80.79,160.93C79.696,160.009 78.795,158.881 78.14,157.61C77.426,156.234 76.981,154.733 76.83,153.19C76.643,151.427 76.83,149.645 77.38,147.96C78.381,144.903 80.632,142.409 83.57,141.1C85.072,140.421 86.693,140.047 88.34,140L88.81,140M88.65,158.52C89.455,158.526 90.25,158.33 90.96,157.95C91.668,157.57 92.296,157.057 92.81,156.44C93.346,155.796 93.768,155.065 94.06,154.28C94.367,153.492 94.526,152.655 94.53,151.81C94.525,150.946 94.344,150.092 94,149.3C93.66,148.504 93.194,147.768 92.62,147.12C92.052,146.49 91.374,145.968 90.62,145.58C89.135,144.776 87.328,144.826 85.89,145.71C85.125,146.158 84.447,146.74 83.89,147.43C82.704,148.923 82.118,150.808 82.25,152.71C82.288,154.347 83.015,155.895 84.25,156.97C85.462,157.975 86.996,158.512 88.57,158.48M88.81,137L88.21,137C86.178,137.075 84.18,137.547 82.33,138.39C78.645,140.04 75.819,143.167 74.55,147C73.869,149.084 73.634,151.289 73.86,153.47C74.041,155.401 74.594,157.279 75.49,159C77.173,162.264 80.095,164.722 83.6,165.82C85.146,166.308 86.759,166.554 88.38,166.55L89.14,166.55C92.977,166.456 96.605,164.761 99.14,161.88C100.347,160.493 101.284,158.892 101.9,157.16C102.536,155.377 102.874,153.502 102.9,151.61C102.941,149.667 102.566,147.737 101.8,145.95C101.07,144.222 100.029,142.643 98.73,141.29C97.406,139.93 95.83,138.839 94.09,138.08C92.423,137.359 90.626,136.992 88.81,137ZM88.65,155.52C87.776,155.553 86.921,155.261 86.25,154.7C85.612,154.157 85.245,153.358 85.25,152.52C85.201,151.949 85.27,151.374 85.45,150.83C85.616,150.293 85.881,149.791 86.23,149.35C86.549,148.949 86.939,148.61 87.38,148.35C87.659,148.18 87.974,148.078 88.3,148.05C88.624,148.06 88.942,148.142 89.23,148.29C89.65,148.509 90.027,148.804 90.34,149.16C90.701,149.56 90.988,150.02 91.19,150.52C91.375,150.925 91.474,151.365 91.48,151.81C91.477,152.289 91.386,152.764 91.21,153.21C91.034,153.687 90.777,154.13 90.45,154.52C90.176,154.848 89.835,155.114 89.45,155.3C89.178,155.451 88.871,155.527 88.56,155.52L88.65,155.52Z" style="fill:white;fill-rule:nonzero;"/>
        </g>
        <g transform="matrix(1,0,0,1,0,-6.78)">
            <path d="M112,140C113.377,140.002 114.739,140.288 116,140.84C117.387,141.437 118.641,142.304 119.69,143.39C120.74,144.471 121.578,145.74 122.16,147.13C122.761,148.524 123.054,150.032 123.02,151.55C123,153.119 122.72,154.673 122.19,156.15C121.706,157.528 120.963,158.801 120,159.9C119.052,160.969 117.904,161.842 116.62,162.47C115.225,163.149 113.701,163.521 112.15,163.56L111.52,163.56C110.207,163.566 108.902,163.366 107.65,162.97C106.293,162.556 105.032,161.876 103.94,160.97C102.846,160.047 101.942,158.919 101.28,157.65C100.574,156.271 100.133,154.772 99.98,153.23C99.793,151.467 99.98,149.685 100.53,148C101.531,144.943 103.782,142.449 106.72,141.14C108.217,140.456 109.835,140.075 111.48,140.02L112,140.02M111.84,158.54C112.645,158.546 113.44,158.35 114.15,157.97C114.863,157.572 115.491,157.039 116,156.4C116.532,155.753 116.955,155.024 117.25,154.24C117.554,153.452 117.71,152.615 117.71,151.77C117.707,150.92 117.53,150.079 117.19,149.3C116.857,148.502 116.394,147.766 115.82,147.12C115.252,146.49 114.574,145.968 113.82,145.58C112.335,144.776 110.528,144.826 109.09,145.71C108.323,146.155 107.645,146.738 107.09,147.43C106.514,148.159 106.073,148.985 105.79,149.87C105.497,150.786 105.382,151.75 105.45,152.71C105.488,154.347 106.215,155.895 107.45,156.97C108.661,157.977 110.196,158.513 111.77,158.48M112,137L111.4,137C109.368,137.075 107.37,137.547 105.52,138.39C101.816,140.029 98.971,143.157 97.69,147C97.009,149.084 96.774,151.289 97,153.47C97.181,155.401 97.734,157.279 98.63,159C100.313,162.264 103.235,164.722 106.74,165.82C108.286,166.308 109.899,166.554 111.52,166.55L112.28,166.55C116.115,166.45 119.741,164.757 122.28,161.88C123.487,160.493 124.424,158.892 125.04,157.16C125.676,155.377 126.014,153.502 126.04,151.61C126.081,149.667 125.706,147.737 124.94,145.95C124.21,144.222 123.169,142.643 121.87,141.29C120.546,139.93 118.97,138.839 117.23,138.08C115.579,137.366 113.799,136.998 112,137ZM111.84,155.52C110.966,155.553 110.111,155.261 109.44,154.7C108.802,154.157 108.435,153.358 108.44,152.52C108.391,151.949 108.46,151.374 108.64,150.83C108.806,150.293 109.071,149.791 109.42,149.35C109.739,148.949 110.129,148.61 110.57,148.35C110.849,148.18 111.164,148.078 111.49,148.05C111.814,148.06 112.132,148.142 112.42,148.29C112.84,148.509 113.217,148.804 113.53,149.16C113.887,149.563 114.175,150.022 114.38,150.52C114.562,150.926 114.657,151.365 114.66,151.81C114.661,152.289 114.573,152.764 114.4,153.21C114.22,153.685 113.963,154.128 113.64,154.52C113.366,154.848 113.025,155.114 112.64,155.3C112.368,155.451 112.061,155.527 111.75,155.52L111.84,155.52Z" style="fill:white;fill-rule:nonzero;"/>
        </g>
        <g transform="matrix(1,0,0,1,0,-6.78)">
            <path d="M123.12,126.6L132.59,126.66L132.38,145.38L143.3,132.17L150.42,132.48L139.66,145.32L146.32,158.06L149.32,158.12L149.74,163.63L142.92,163.78L135.59,149.9L132,154L131.95,158.52L136.79,158.57L136.84,163.15L123.07,163.15L123.12,158.47L126.45,158.52L126.14,130.81L123.14,130.81L123.14,126.6M120.14,123.6L120.14,133.83L123.14,133.83L123.39,155.49L120.14,155.49L120.14,158.49L120.09,163.17L120.09,166.17L139.88,166.17L139.88,164.41L140.3,165.19L141.17,166.84L143.02,166.79L149.83,166.64L153,166.57L152.76,163.41L152.34,157.9L152.14,155.17L148.22,155.17L143.32,145.78L152.79,134.48L156.7,129.82L150.63,129.55L143.5,129.24L142.01,129.18L141.06,130.33L135.54,137L135.66,126.76L135.66,123.76L132.66,123.76L123.2,123.7L120.14,123.6ZM134.97,155.6L134.97,155.23L135.17,155.61L134.97,155.6Z" style="fill:white;fill-rule:nonzero;"/>
        </g>
        <g transform="matrix(1,0,0,1,0,-6.78)">
            <path d="M155.88,130.82C156.92,130.814 157.931,131.167 158.74,131.82C159.588,132.501 160.07,133.542 160.04,134.63C160.125,135.642 159.759,136.642 159.04,137.36C158.349,138.1 157.372,138.509 156.36,138.48C155.332,138.494 154.325,138.186 153.48,137.6C152.612,136.981 152.127,135.953 152.2,134.89C152.181,133.857 152.536,132.851 153.2,132.06C153.831,131.263 154.804,130.81 155.82,130.84M160.24,140.56L160.24,157.77L163.16,157.88L163.16,162.82L151.41,162.82L151.26,158.14L154.79,157.98L155,145.9L150.58,145.69L150.53,140.8L160.35,140.54M155.93,127.82C154.022,127.788 152.201,128.637 151,130.12C149.887,131.451 149.281,133.135 149.29,134.87C149.281,135.89 149.504,136.898 149.94,137.82L147.49,137.88L147.49,140.88L147.54,145.77L147.54,148.6L150.37,148.73L151.89,148.81L151.81,155.14L151.1,155.14L148.1,155.27L148.2,158.27L148.35,162.95L148.45,165.85L166.21,165.85L166.21,155L163.31,154.9L163.31,137.5L162.56,137.5C162.955,136.552 163.126,135.525 163.06,134.5C163.044,132.554 162.15,130.715 160.63,129.5C159.287,128.432 157.616,127.856 155.9,127.87L155.93,127.82Z" style="fill:white;fill-rule:nonzero;"/>
        </g>
        <g transform="matrix(1,0,0,1,0,-6.78)">
            <path d="M172,139.66L172,142.83C172.885,142.179 173.881,141.694 174.94,141.4C175.996,141.074 177.095,140.905 178.2,140.9L178.5,140.9C181.275,140.969 183.935,142.034 185.99,143.9C186.992,144.815 187.813,145.911 188.41,147.13C189.032,148.374 189.373,149.74 189.41,151.13C189.445,152.553 189.263,153.972 188.87,155.34C188.476,156.709 187.82,157.989 186.94,159.11C186.022,160.268 184.862,161.21 183.54,161.87C181.964,162.623 180.236,163.003 178.49,162.98L178.15,162.98C175.906,162.98 173.718,162.281 171.89,160.98L171.94,171.69L176.31,171.59L176.46,176.94L163.36,176.73L163.41,172.37L166.41,172.21L166.25,144.34L163.65,144.34L163.65,140L172.07,139.69M177.9,157.63C179.242,157.613 180.519,157.045 181.43,156.06C183.483,153.82 183.669,150.409 181.87,147.96C180.89,146.774 179.406,146.118 177.87,146.19C176.804,146.198 175.75,146.419 174.77,146.84C173.788,147.216 172.944,147.883 172.35,148.75L172.35,154.7C172.924,155.579 173.712,156.298 174.64,156.79C175.626,157.345 176.739,157.634 177.87,157.63M175,136.54L171.89,136.66L163.47,136.97L160.58,137.08L160.58,147.28L163.2,147.33L163.32,169.42L163.21,169.42L160.41,169.57L160.41,172.38L160.36,176.75L160.36,179.75L163.36,179.75L176.47,179.96L179.6,179.96L179.51,176.82L179.36,171.47L179.27,168.47L176.27,168.54L174.95,168.54L174.95,165.54C176.011,165.793 177.099,165.921 178.19,165.92L178.62,165.92C180.809,165.926 182.97,165.433 184.94,164.48C186.65,163.621 188.152,162.399 189.34,160.9C190.459,159.477 191.291,157.85 191.79,156.11C192.268,154.447 192.491,152.72 192.45,150.99C192.416,149.159 191.982,147.357 191.18,145.71C190.416,144.162 189.371,142.768 188.1,141.6C185.51,139.248 182.158,137.905 178.66,137.82L178.28,137.82C177.202,137.824 176.129,137.951 175.08,138.2L175.08,136.46L175,136.54ZM175.31,149.88C175.489,149.76 175.68,149.659 175.88,149.58C176.486,149.314 177.139,149.172 177.8,149.16C178.97,149.16 179.31,149.62 179.46,149.81C179.92,150.391 180.126,151.135 180.03,151.87L180.03,151.93C180.047,152.676 179.762,153.397 179.24,153.93C178.896,154.358 178.379,154.611 177.83,154.62C177.21,154.625 176.599,154.467 176.06,154.16C175.791,154.015 175.54,153.841 175.31,153.64L175.31,149.88Z" style="fill:white;fill-rule:nonzero;"/>
        </g>
        <g transform="matrix(1,0,0,1,0,-6.78)">
            <path d="M200.45,140.23C201.553,140.257 202.647,140.439 203.7,140.77C204.983,141.162 206.157,141.846 207.13,142.77C208.302,143.938 209.2,145.353 209.76,146.91C210.503,149.098 210.769,151.42 210.54,153.72L195.19,154.19C195.188,154.796 195.361,155.391 195.69,155.9C196.024,156.428 196.447,156.895 196.94,157.28C197.448,157.684 198.019,158.001 198.63,158.22C199.232,158.436 199.862,158.567 200.5,158.61L200.77,158.61C201.607,158.605 202.438,158.464 203.23,158.19C204.067,157.929 204.826,157.465 205.44,156.84L208.44,160.63C207.477,161.739 206.239,162.573 204.85,163.05C203.58,163.458 202.254,163.66 200.92,163.65L200.59,163.65C199.109,163.618 197.645,163.32 196.27,162.77C194.902,162.224 193.663,161.4 192.63,160.35C191.554,159.228 190.732,157.888 190.22,156.42C189.617,154.667 189.375,152.809 189.51,150.96C189.575,149.269 190.001,147.612 190.76,146.1C191.419,144.814 192.33,143.675 193.44,142.75C194.465,141.9 195.638,141.246 196.9,140.82C198.056,140.424 199.268,140.214 200.49,140.2M195.49,149.56L205.11,149.19C204.995,147.995 204.377,146.903 203.41,146.19C202.597,145.557 201.6,145.206 200.57,145.19L200.42,145.19C199.274,145.253 198.176,145.672 197.28,146.39C196.262,147.145 195.611,148.298 195.49,149.56M200.49,137.2C198.944,137.213 197.411,137.477 195.95,137.98C194.342,138.519 192.847,139.35 191.54,140.43C190.128,141.611 188.962,143.058 188.11,144.69C187.145,146.584 186.603,148.666 186.52,150.79C186.366,153.05 186.665,155.318 187.4,157.46C188.064,159.329 189.121,161.034 190.5,162.46C191.82,163.807 193.407,164.864 195.16,165.56C196.866,166.247 198.682,166.62 200.52,166.66L200.92,166.66C202.573,166.671 204.217,166.418 205.79,165.91C207.667,165.271 209.346,164.154 210.66,162.67L212.37,160.79L210.81,158.79L209.22,156.79L210.67,156.79L213.4,156.7L213.57,153.98C213.83,151.239 213.489,148.475 212.57,145.88C211.848,143.909 210.697,142.122 209.2,140.65C207.89,139.396 206.304,138.468 204.57,137.94C203.242,137.522 201.862,137.296 200.47,137.27L200.49,137.2Z" style="fill:white;fill-rule:nonzero;"/>
        </g>
        <g transform="matrix(1,0,0,1,0,-6.78)">
            <path d="M227.28,126.55L236.59,126.71L236.59,131.6L233.41,131.8L233.05,159.57L235.65,159.47L235.65,164.41L227.33,164.62L227.33,161.13C226.639,161.816 225.781,162.309 224.84,162.56C223.828,162.877 222.779,163.061 221.72,163.11L221.44,163.11C220.149,163.113 218.869,162.883 217.66,162.43C216.36,161.957 215.159,161.244 214.12,160.33C211.882,158.344 210.597,155.492 210.59,152.5C210.556,150.997 210.793,149.499 211.29,148.08C211.769,146.659 212.52,145.345 213.5,144.21C214.499,143.057 215.729,142.127 217.11,141.48C218.564,140.798 220.154,140.456 221.76,140.48L222.03,140.48C223.002,140.483 223.968,140.642 224.89,140.95C225.747,141.198 226.544,141.62 227.23,142.19L227.23,126.55M222.1,158.38C223.04,158.382 223.963,158.118 224.76,157.62C225.677,157.051 226.451,156.277 227.02,155.36L227.07,147.98C226.398,147.203 225.566,146.582 224.63,146.16C223.918,145.801 223.137,145.6 222.34,145.57L222.03,145.57C221.149,145.625 220.29,145.867 219.51,146.28C218.797,146.648 218.168,147.159 217.66,147.78C217.181,148.381 216.802,149.057 216.54,149.78C216.286,150.444 216.154,151.149 216.15,151.86C216.076,153.537 216.633,155.183 217.71,156.47C218.753,157.713 220.298,158.428 221.92,158.42L222.1,158.42M224.23,123.54L224.23,137.74C223.515,137.602 222.788,137.531 222.06,137.53L221.76,137.53C219.706,137.505 217.672,137.942 215.81,138.81C214.061,139.644 212.502,140.828 211.23,142.29C210.003,143.715 209.06,145.361 208.45,147.14C207.845,148.899 207.553,150.75 207.59,152.61C207.605,154.589 208.052,156.542 208.9,158.33C209.689,159.958 210.79,161.415 212.14,162.62C214.707,164.888 218.015,166.143 221.44,166.15L221.79,166.15C222.621,166.12 223.448,166.016 224.26,165.84L224.26,167.73L227.39,167.66L235.7,167.45L238.63,167.37L238.63,156.37L236.07,156.47L236.36,134.64L236.76,134.64L239.57,134.46L239.57,123.76L236.57,123.71L227.26,123.55L224.21,123.55L224.23,123.54ZM222.1,155.42L222.03,155.42C221.262,155.448 220.523,155.119 220.03,154.53C219.424,153.801 219.119,152.866 219.18,151.92L219.18,151.86C219.189,151.518 219.257,151.179 219.38,150.86C219.533,150.45 219.753,150.069 220.03,149.73C220.282,149.422 220.596,149.17 220.95,148.99C221.362,148.778 221.816,148.658 222.28,148.64L222.34,148.64C222.711,148.669 223.072,148.774 223.4,148.95C223.639,149.064 223.869,149.194 224.09,149.34L224.09,154.43C223.85,154.704 223.571,154.94 223.26,155.13C222.932,155.342 222.55,155.453 222.16,155.45L222.1,155.42Z" style="fill:white;fill-rule:nonzero;"/>
        </g>
        <g transform="matrix(1,0,0,1,0,-6.78)">
            <path d="M242.05,130.82C243.089,130.817 244.099,131.17 244.91,131.82C245.751,132.507 246.231,133.544 246.21,134.63C246.217,134.72 246.22,134.81 246.22,134.901C246.22,136.865 244.604,138.481 242.64,138.481C242.617,138.481 242.593,138.48 242.57,138.48C241.539,138.496 240.528,138.188 239.68,137.6C238.816,136.979 238.335,135.951 238.41,134.89C238.39,133.857 238.745,132.851 239.41,132.06C240.045,131.263 241.021,130.81 242.04,130.84M246.46,140.56L246.51,157.77L249.42,157.88L249.42,162.82L237.57,162.82L237.42,158.14L241,158L241.16,145.94L236.74,145.73L236.69,140.84L246.52,140.58M242.1,127.86C240.189,127.826 238.365,128.675 237.16,130.16C236.054,131.495 235.452,133.177 235.46,134.91C235.448,135.929 235.667,136.938 236.1,137.86L233.66,137.92L233.66,140.92L233.71,145.81L233.71,148.64L236.54,148.77L238.06,148.85L237.98,155.18L237.28,155.18L234.28,155.31L234.38,158.31L234.54,162.99L234.63,165.89L252.39,165.89L252.39,155L249.5,154.9L249.5,137.5L248.74,137.5C249.135,136.552 249.306,135.525 249.24,134.5C249.224,132.554 248.33,130.715 246.81,129.5C245.471,128.432 243.803,127.856 242.09,127.87L242.1,127.86Z" style="fill:white;fill-rule:nonzero;"/>
        </g>
        <g transform="matrix(1,0,0,1,0,-6.78)">
            <path d="M258.73,139.67L259.8,139.67C261.201,139.786 262.563,140.191 263.8,140.86C265.107,141.493 266.227,142.454 267.05,143.65C267.789,144.803 268.292,146.091 268.53,147.44C268.827,149.063 268.978,150.71 268.98,152.36C268.98,154.19 268.98,156.26 269.05,158.54L271.5,158.49L271.71,163.54L263.59,163.74L263.59,161.74C262.534,162.733 261.166,163.33 259.72,163.43C259.36,163.43 258.99,163.48 258.63,163.48C257.425,163.479 256.228,163.276 255.09,162.88C253.609,162.379 252.278,161.512 251.22,160.36C250.141,159.193 249.544,157.659 249.55,156.07C249.427,153.842 250.295,151.67 251.92,150.14C253.595,148.623 255.77,147.772 258.03,147.75L258.73,147.75C259.521,147.739 260.309,147.843 261.07,148.06C261.826,148.27 262.539,148.608 263.18,149.06C263.198,148.047 262.897,147.053 262.32,146.22C261.763,145.423 260.94,144.848 260,144.6C259.548,144.469 259.08,144.405 258.61,144.41C257.975,144.418 257.343,144.505 256.73,144.67C255.291,145.114 253.966,145.868 252.85,146.88L250.36,142.98C251.075,142.289 251.878,141.697 252.75,141.22C253.767,140.655 254.862,140.244 256,140C256.892,139.797 257.805,139.696 258.72,139.7M259.21,159.32C259.707,159.316 260.202,159.246 260.68,159.11C261.69,158.794 262.595,158.21 263.3,157.42L263.2,153.62C262.702,153.308 262.168,153.056 261.61,152.87C260.934,152.633 260.226,152.502 259.51,152.48C258.381,152.404 257.265,152.762 256.39,153.48C255.68,154.137 255.311,155.086 255.39,156.05C255.385,156.792 255.664,157.508 256.17,158.05C256.693,158.62 257.371,159.027 258.12,159.22C258.473,159.309 258.836,159.352 259.2,159.35M258.71,136.73C257.566,136.723 256.425,136.851 255.31,137.11C253.888,137.428 252.52,137.954 251.25,138.67C250.157,139.287 249.148,140.043 248.25,140.92L246.55,142.63L247.85,144.63L249.97,147.95L249.87,148.04C247.629,150.15 246.413,153.134 246.54,156.21C246.537,158.543 247.42,160.793 249.01,162.5C250.403,164.014 252.153,165.156 254.1,165.82C255.554,166.324 257.081,166.581 258.62,166.58C259.081,166.582 259.542,166.558 260,166.51L260.58,166.44L260.58,166.89L263.66,166.81L271.77,166.6L274.82,166.53L274.69,163.48L274.49,158.48L274.36,155.54L272,155.59L272,152.44C271.996,150.609 271.829,148.782 271.5,146.98C271.184,145.252 270.536,143.601 269.59,142.12C268.479,140.5 266.971,139.191 265.21,138.32C263.623,137.463 261.877,136.942 260.08,136.79C259.64,136.79 259.2,136.74 258.77,136.74L258.71,136.73ZM258.41,155.67C258.728,155.546 259.069,155.492 259.41,155.51C259.683,155.524 259.953,155.561 260.22,155.62L260.22,156C260.096,156.077 259.961,156.135 259.82,156.17C259.609,156.234 259.39,156.267 259.17,156.27C259.067,156.28 258.963,156.28 258.86,156.27C258.668,156.225 258.494,156.124 258.36,155.98L258.36,155.91C258.342,155.818 258.342,155.722 258.36,155.63L258.41,155.67Z" style="fill:white;fill-rule:nonzero;"/>
        </g>
    </g>
    <g id="Layer_6_copy_2">
        <g transform="matrix(1,0,0,1,0,-6.78)">
            <path d="M76.74,130.66L74.35,130.76L74,161.34L67.34,161.5L54.38,138.34L54.49,158.34L59.89,158.45L59.89,162.82L45.8,162.82L45.8,157.67L48.97,157.72L48.5,131.41L45.69,131.31L45.64,127.25L54.22,127.25L68.52,151.53L68.63,130.84L64,131L63.85,126.74L76.74,126.89L76.74,130.66Z" style="fill:rgb(103,173,66);fill-rule:nonzero;"/>
        </g>
        <g transform="matrix(1,0,0,1,0,-6.78)">
            <path d="M122.16,147.09C121.572,145.7 120.734,144.429 119.69,143.34C118.638,142.26 117.384,141.397 116,140.8C114.58,140.17 110.5,138.28 99.5,138.28C88.5,138.28 85.05,140.41 83.58,141.08C82.14,141.733 80.847,142.672 79.78,143.84C78.7,145.044 77.886,146.461 77.39,148C76.84,149.682 76.652,151.461 76.84,153.22C76.991,154.762 77.432,156.262 78.14,157.64C79.46,160.206 81.756,162.138 84.51,163C85.962,163.466 87.488,163.659 89.01,163.57C93.5,163.33 97.5,159.33 100.5,159.33C103.5,159.33 106.5,163.33 112.15,163.57C113.709,163.598 115.249,163.222 116.62,162.48C117.904,161.848 119.052,160.972 120,159.9C120.965,158.806 121.708,157.536 122.19,156.16C122.714,154.682 122.994,153.128 123.02,151.56C123.063,150.025 122.769,148.499 122.16,147.09ZM94.06,154.24C93.76,155.021 93.338,155.75 92.81,156.4C92.307,157.01 91.693,157.519 91,157.9C90.292,158.288 89.497,158.487 88.69,158.48C87.106,158.529 85.557,158.003 84.33,157C83.096,155.919 82.371,154.37 82.33,152.73C82.262,151.774 82.377,150.813 82.67,149.9C82.951,149.014 83.392,148.187 83.97,147.46C84.522,146.765 85.2,146.181 85.97,145.74C86.686,145.314 87.497,145.073 88.33,145.04C89.154,145.038 89.967,145.233 90.7,145.61C91.456,145.991 92.134,146.51 92.7,147.14C93.247,147.785 93.686,148.515 94,149.3C94.341,150.079 94.518,150.92 94.52,151.77C94.519,152.614 94.363,153.452 94.06,154.24ZM117.2,154.24C116.915,155.018 116.51,155.747 116,156.4C115.486,157.014 114.857,157.524 114.15,157.9C113.442,158.288 112.647,158.487 111.84,158.48C110.266,158.511 108.732,157.975 107.52,156.97C106.286,155.889 105.561,154.34 105.52,152.7C105.452,151.744 105.567,150.783 105.86,149.87C106.141,148.984 106.582,148.157 107.16,147.43C107.712,146.735 108.39,146.151 109.16,145.71C109.876,145.284 110.687,145.043 111.52,145.01C112.344,145.009 113.157,145.204 113.89,145.58C114.644,145.964 115.322,146.482 115.89,147.11C116.464,147.759 116.927,148.499 117.26,149.3C117.601,150.079 117.778,150.92 117.78,151.77C117.741,152.622 117.544,153.459 117.2,154.24Z" style="fill:rgb(103,173,66);fill-rule:nonzero;"/>
        </g>
        <g transform="matrix(1,0,0,1,0,-6.78)">
            <path d="M150.42,132.48L139.66,145.32L146.32,158.06L149.32,158.12L149.74,163.63L142.92,163.78L135.59,149.9L132,154L131.95,158.52L136.79,158.57L136.84,163.15L123.07,163.15L123.12,158.47L126.45,158.52L126.14,130.81L123.14,130.81L123.14,126.6L132.61,126.66L132.4,145.38L143.32,132.17L150.42,132.48Z" style="fill:rgb(103,173,66);fill-rule:nonzero;"/>
        </g>
        <g transform="matrix(1,0,0,1,0,-6.78)">
            <path d="M163.27,162.8L151.41,162.8L151.26,158.12L154.79,157.96L155,145.9L150.58,145.69L150.53,140.8L160.35,140.54L160.35,157.75L163.27,157.86L163.27,162.8ZM160,134.61C160.085,135.622 159.719,136.622 159,137.34C158.309,138.08 157.332,138.489 156.32,138.46C155.292,138.474 154.285,138.166 153.44,137.58C152.572,136.961 152.087,135.933 152.16,134.87C152.141,133.837 152.496,132.831 153.16,132.04C153.791,131.243 154.764,130.79 155.78,130.82C156.82,130.814 157.831,131.167 158.64,131.82C159.505,132.485 160.009,133.519 160,134.61Z" style="fill:rgb(103,173,66);fill-rule:nonzero;"/>
        </g>
        <g transform="matrix(1,0,0,1,0,-6.78)">
            <path d="M189.37,151.15C189.405,152.573 189.223,153.992 188.83,155.36C188.436,156.729 187.78,158.009 186.9,159.13C185.982,160.288 184.822,161.23 183.5,161.89C181.924,162.643 180.196,163.023 178.45,163C176.091,163.075 173.771,162.372 171.85,161L171.9,171.71L176.27,171.61L176.42,176.96L163.32,176.75L163.37,172.39L166.37,172.23L166.21,144.36L163.61,144.36L163.61,140L172.03,139.69L172.03,142.86C172.915,142.209 173.911,141.724 174.97,141.43C176.121,141.069 177.324,140.9 178.53,140.93C181.305,140.999 183.965,142.064 186.02,143.93C187.022,144.845 187.843,145.941 188.44,147.16C189.036,148.407 189.353,149.768 189.37,151.15ZM183.03,152.06C183.166,150.577 182.725,149.097 181.8,147.93C180.82,146.744 179.336,146.088 177.8,146.16C176.734,146.168 175.68,146.389 174.7,146.81C173.718,147.186 172.874,147.853 172.28,148.72L172.28,154.67C172.854,155.549 173.642,156.268 174.57,156.76C175.556,157.315 176.669,157.604 177.8,157.6C179.142,157.583 180.419,157.015 181.33,156.03C182.376,154.971 182.975,153.548 183,152.06L183.03,152.06Z" style="fill:rgb(103,173,66);fill-rule:nonzero;"/>
        </g>
        <g transform="matrix(1,0,0,1,0,-6.78)">
            <path d="M210.54,153.75L195.19,154.22C195.188,154.826 195.361,155.421 195.69,155.93C196.024,156.458 196.447,156.925 196.94,157.31C197.448,157.714 198.019,158.031 198.63,158.25C199.232,158.466 199.862,158.597 200.5,158.64C201.428,158.666 202.353,158.523 203.23,158.22C204.067,157.959 204.826,157.495 205.44,156.87L208.44,160.66C207.477,161.769 206.239,162.603 204.85,163.08C203.475,163.524 202.034,163.727 200.59,163.68C199.109,163.648 197.645,163.35 196.27,162.8C194.902,162.254 193.663,161.43 192.63,160.38C191.554,159.258 190.732,157.918 190.22,156.45C189.617,154.697 189.375,152.839 189.51,150.99C189.575,149.299 190.001,147.642 190.76,146.13C191.419,144.844 192.33,143.705 193.44,142.78C194.465,141.93 195.638,141.276 196.9,140.85C198.056,140.454 199.268,140.244 200.49,140.23C201.593,140.257 202.687,140.439 203.74,140.77C205.023,141.162 206.197,141.846 207.17,142.77C208.342,143.938 209.24,145.353 209.8,146.91C210.534,149.111 210.787,151.443 210.54,153.75ZM205.08,149.22C204.965,148.025 204.347,146.933 203.38,146.22C202.523,145.555 201.464,145.203 200.38,145.22C199.234,145.283 198.136,145.702 197.24,146.42C196.222,147.175 195.571,148.328 195.45,149.59L205.08,149.22Z" style="fill:rgb(103,173,66);fill-rule:nonzero;"/>
        </g>
        <g transform="matrix(1,0,0,1,0,-6.78)">
            <path d="M236.59,126.71L236.59,131.6L233.41,131.8L233.05,159.57L235.65,159.47L235.65,164.41L227.33,164.62L227.33,161.13C226.639,161.816 225.781,162.309 224.84,162.56C223.828,162.877 222.779,163.061 221.72,163.11C220.336,163.144 218.958,162.913 217.66,162.43C216.36,161.957 215.159,161.244 214.12,160.33C211.882,158.344 210.597,155.492 210.59,152.5C210.556,150.997 210.793,149.499 211.29,148.08C211.769,146.659 212.52,145.345 213.5,144.21C214.499,143.057 215.729,142.127 217.11,141.48C218.646,140.756 220.334,140.413 222.03,140.48C223.002,140.483 223.968,140.642 224.89,140.95C225.747,141.198 226.544,141.62 227.23,142.19L227.23,126.55L236.59,126.71ZM227.12,148C226.448,147.223 225.616,146.602 224.68,146.18C223.877,145.768 222.982,145.568 222.08,145.6C221.199,145.655 220.34,145.897 219.56,146.31C218.847,146.678 218.218,147.189 217.71,147.81C217.231,148.411 216.852,149.087 216.59,149.81C216.336,150.474 216.204,151.179 216.2,151.89C216.126,153.567 216.683,155.213 217.76,156.5C218.803,157.743 220.348,158.458 221.97,158.45C222.971,158.483 223.96,158.219 224.81,157.69C225.727,157.121 226.501,156.347 227.07,155.43L227.12,148Z" style="fill:rgb(103,173,66);fill-rule:nonzero;"/>
        </g>
        <g transform="matrix(1,0,0,1,0,-6.78)">
            <path d="M249.43,162.8L237.57,162.8L237.42,158.12L241,158L241.16,145.94L236.74,145.73L236.69,140.84L246.52,140.58L246.57,157.79L249.48,157.9L249.43,162.8ZM246.21,134.61C246.217,134.7 246.22,134.79 246.22,134.881C246.22,136.845 244.604,138.461 242.64,138.461C242.617,138.461 242.593,138.46 242.57,138.46C241.539,138.476 240.528,138.168 239.68,137.58C238.816,136.959 238.335,135.931 238.41,134.87C238.39,133.837 238.745,132.831 239.41,132.04C240.045,131.243 241.021,130.79 242.04,130.82C243.079,130.817 244.089,131.17 244.9,131.82C245.739,132.501 246.222,133.529 246.21,134.61Z" style="fill:rgb(103,173,66);fill-rule:nonzero;"/>
        </g>
        <g transform="matrix(1,0,0,1,0,-6.78)">
            <path d="M271.69,163.58L263.57,163.78L263.57,161.78C262.514,162.773 261.146,163.37 259.7,163.47C258.135,163.623 256.555,163.436 255.07,162.92C253.589,162.419 252.258,161.552 251.2,160.4C250.121,159.233 249.524,157.699 249.53,156.11C249.407,153.882 250.275,151.71 251.9,150.18C253.575,148.663 255.75,147.812 258.01,147.79C259.019,147.714 260.034,147.812 261.01,148.08C261.766,148.29 262.479,148.628 263.12,149.08C263.138,148.067 262.837,147.073 262.26,146.24C261.721,145.447 260.921,144.866 260,144.6C258.924,144.325 257.793,144.349 256.73,144.67C255.291,145.114 253.966,145.868 252.85,146.88L250.36,142.98C251.075,142.289 251.878,141.697 252.75,141.22C253.767,140.655 254.862,140.244 256,140C257.242,139.715 258.521,139.627 259.79,139.74C261.191,139.856 262.553,140.261 263.79,140.93C265.097,141.563 266.217,142.524 267.04,143.72C267.779,144.873 268.282,146.161 268.52,147.51C268.817,149.133 268.968,150.78 268.97,152.43C268.97,154.26 268.97,156.33 269.04,158.61L271.49,158.56L271.69,163.58ZM263.31,157.39L263.21,153.59C262.712,153.278 262.178,153.026 261.62,152.84C260.944,152.603 260.236,152.472 259.52,152.45C258.391,152.374 257.275,152.732 256.4,153.45C255.69,154.107 255.321,155.056 255.4,156.02C255.395,156.762 255.674,157.478 256.18,158.02C256.703,158.59 257.381,158.997 258.13,159.19C258.972,159.392 259.853,159.364 260.68,159.11C261.697,158.787 262.606,158.192 263.31,157.39Z" style="fill:rgb(103,173,66);fill-rule:nonzero;"/>
        </g>
        <g transform="matrix(1,0,0,1,0,-6.78)">
            <path d="M105,164.86C104.516,165.014 104.004,165.062 103.5,165C103.025,164.951 102.556,164.854 102.1,164.71C101.664,164.556 101.246,164.358 100.85,164.12C100.443,163.898 100.061,163.633 99.71,163.33L101.46,163.22C101.2,163.45 101.03,163.57 100.82,163.73C100.61,163.89 100.4,163.98 100.19,164.09C99.769,164.317 99.327,164.501 98.87,164.64C98.417,164.776 97.951,164.866 97.48,164.91C97.002,164.97 96.518,164.97 96.04,164.91L95.96,164.91L95.96,164.81L96.03,164.81C96.836,164.518 97.619,164.164 98.37,163.75C99.118,163.342 99.816,162.849 100.45,162.28L100.54,162.2L100.64,162.27C101.982,163.333 103.475,164.189 105.07,164.81L105.14,164.81L105.14,164.9L105,164.86Z" style="fill:rgb(103,173,66);fill-rule:nonzero;"/>
        </g>
    </g>
</svg>
